<svg xmlns="http://www.w3.org/2000/svg" xmlns:xlink="http://www.w3.org/1999/xlink" width="59" height="36" viewBox="0 0 59 36">
    <defs>
        <path id="g4gt2qbh0a" d="M0 0.461L59 0.461 59 35.461 0 35.461z"/>
    </defs>
    <g fill="none" fill-rule="evenodd">
        <g>
            <g transform="translate(-79.000000, -26.000000) translate(79.000000, 26.000000)">
                <mask id="ngyg0mzk8b" fill="#fff">
                    <use xlink:href="#g4gt2qbh0a"/>
                </mask>
                <path fill="#FFF" d="M37.196 28.366c-13.355 0-21.947-5.045-21.947-5.045l-3.572 1.81-.574-10.453 17.73 2.281-3.566 1.771c3.132 2.488 8.352 4.46 18.27 4.46 9.919 0 15.46-6.12 15.46-6.12C59.15 12.423 51.787.461 29.696.461 7.605.461 1.303 12.807 1.303 12.807S9.379 6.29 21.326 5.022c11.947-1.268 22.467 4.776 22.467 4.776l3.757-1.491c-.15 1.567.526 10.15.526 10.15l-17.658-2.314 3.908-1.79s-3.758-4.18-15.705-4.18c-13.9 0-18.487 5.75-18.487 5.75-1.14 6.17 4.658 19.538 30.017 19.538C55.51 35.461 59 19.42 59 19.42s-8.449 8.946-21.804 8.946" mask="url(#ngyg0mzk8b)"/>
            </g>
        </g>
    </g>
</svg>
