<svg xmlns="http://www.w3.org/2000/svg" width="24" height="24" viewBox="0 0 24 24">
    <g fill="none" fill-rule="evenodd">
        <g>
            <g>
                <g>
                    <path d="M0 0L24 0 24 24 0 24z" transform="translate(-633.000000, -329.000000) translate(381.000000, 326.000000) translate(252.000000, 3.000000)"/>
                    <path fill="#FEA63B" fill-rule="nonzero" d="M12 2C8.13 2 5 5.13 5 9c0 5.25 7 13 7 13s7-7.75 7-13c0-3.87-3.13-7-7-7zm0 9.5c-1.38 0-2.5-1.12-2.5-2.5s1.12-2.5 2.5-2.5 2.5 1.12 2.5 2.5-1.12 2.5-2.5 2.5z" transform="translate(-633.000000, -329.000000) translate(381.000000, 326.000000) translate(252.000000, 3.000000)"/>
                </g>
            </g>
        </g>
    </g>
</svg>
